<?xml version="1.0" encoding="utf-8"?>
<!-- Generator: Adobe Illustrator 24.2.3, SVG Export Plug-In . SVG Version: 6.00 Build 0)  -->
<svg version="1.1" id="레이어_1" xmlns="http://www.w3.org/2000/svg" xmlns:xlink="http://www.w3.org/1999/xlink" x="0px"
	 y="0px" viewBox="0 0 40 40" style="enable-background:new 0 0 40 40;" xml:space="preserve">
<style type="text/css">
	.st0{fill:#C1A2CC;}
	.st1{fill:none;stroke:#FFFFFF;stroke-width:2;stroke-miterlimit:10;}
	.st2{fill:none;stroke:#FFFFFF;stroke-width:2;stroke-linecap:round;stroke-miterlimit:10;}
	.st3{fill:none;stroke:#FFFFFF;stroke-width:2;stroke-linecap:round;stroke-linejoin:round;stroke-miterlimit:10;}
</style>
<rect x="0" y="0" class="st0" width="40" height="40"/>
<path class="st1" d="M17.55,8.4c-0.27,1.9-2.35,2.61-4.57,2.3c-2.22-0.31-4.4-1.13-3.83-2.96c0.45-1.42,2.08-1.79,3.72-2.4
	c0.84-0.31,1.25-0.59,1.59-0.81c0.83-0.54,1.11-1.44,1.11-1.44s1.06,1.78,1.56,3.13C17.51,7.22,17.66,7.62,17.55,8.4z"/>
<path class="st2" d="M10.33,6.43c0,0-1.25,1.33-0.83,2.6c0.42,1.27,3.39,1.67,3.39,1.67s3.9,0.18,4.53-2.3s-3.19-2.81-3.19-2.81
	s-2.86-0.68-6.29,2.63c-1.45,1.39-2.02,2.52-2.2,3.36c-0.19,0.9,0.23,1.72,1.06,2.23c0.8,0.49,1.93,1,3.2,1.07
	c4.36,0.23,5.97-1.57,5.97-1.57"/>
<path class="st1" d="M37.54,11.22c-0.27,1.9-2.35,2.61-4.57,2.3c-2.22-0.31-4.4-1.13-3.83-2.96c0.45-1.42,2.08-1.79,3.72-2.4
	c0.84-0.31,1.25-0.59,1.59-0.81C35.3,6.8,35.57,5.9,35.57,5.9s1.06,1.78,1.56,3.13C37.51,10.03,37.65,10.43,37.54,11.22z"/>
<path class="st2" d="M30.32,9.24c0,0-1.25,1.33-0.83,2.6s3.39,1.67,3.39,1.67s3.9,0.18,4.53-2.3c0.63-2.48-3.19-2.81-3.19-2.81
	s-2.86-0.68-6.29,2.63c-1.45,1.39-2.02,2.52-2.2,3.36c-0.19,0.9,0.23,1.72,1.06,2.23c0.8,0.49,1.93,1,3.2,1.07
	c4.36,0.23,5.97-1.57,5.97-1.57"/>
<path class="st3" d="M4.56,34.13"/>
<path class="st3" d="M19.28,21.03c-1.39,0.17-2.7-0.53-3.21-1.66c-0.69-1.54,0.41-3.33,1.76-4.04c0.97-0.51,2.38-0.68,3.52,0.1
	c1.02,0.7,1.29,1.79,1.35,2.07"/>
<path class="st3" d="M3.73,17.79c0.39,0.67,1.1,1.09,1.88,1.09s1.49-0.42,1.88-1.09"/>
<path class="st1" d="M33.2,22.24c-0.23,0.93-0.71,2.36-1.78,3.76c-4.24,5.5-14.98,6.67-21.16,1.48c-1.04-0.87-3.56-3.28-4.65-8.01"
	/>
<path class="st3" d="M30.63,20.16c0.29,0.29,1.28,1.19,2.87,1.38c1.62,0.2,2.82-0.48,3.16-0.69"/>
</svg>
